<svg xmlns="http://www.w3.org/2000/svg" data-name="Layer 1" viewBox="0 0 95 118.75" x="0px" y="0px" style="background-color: #4e10cc; padding-top: 8px;"><path fill="white" d="M53.31,45H20.14a3.4,3.4,0,0,0-3.39,3.395V71.506A3.4,3.4,0,0,0,20.14,74.9H32.109l-2,3.466h-3.7a2.419,2.419,0,0,0,0,4.838H47.057a2.419,2.419,0,0,0,0-4.838H43.343L41.35,74.9H53.31a3.4,3.4,0,0,0,3.4-3.394V48.394A3.4,3.4,0,0,0,53.31,45ZM20.14,47.1H53.31a1.305,1.305,0,0,1,1.307,1.3V68.352H18.846V48.394A1.3,1.3,0,0,1,20.14,47.1Zm27.236,33.69a.334.334,0,0,1-.319.323H26.406a.323.323,0,0,1,0-.646H47.057A.334.334,0,0,1,47.376,80.785Zm-6.45-2.419h-8.4l2-3.466h4.4ZM53.31,72.805H20.14a1.3,1.3,0,0,1-1.294-1.3V70.447H54.617v1.059A1.305,1.305,0,0,1,53.31,72.805ZM64.026,40.229A14.217,14.217,0,1,0,49.8,26.013,14.236,14.236,0,0,0,64.026,40.229Zm1.048-5.3H68.2a6.251,6.251,0,0,1-3.13,3.016Zm0-2.1V27.061h5.177a20.017,20.017,0,0,1-1.093,5.768Zm0-7.864V19.2h4.084a20.01,20.01,0,0,1,1.093,5.768Zm0-7.863V14.084A6.249,6.249,0,0,1,68.205,17.1Zm-2.095,0h-3.13a6.244,6.244,0,0,1,3.13-3.018Zm0,2.095v5.768H57.8A20.011,20.011,0,0,1,58.9,19.2Zm0,7.864v5.768H58.9A19.983,19.983,0,0,1,57.8,27.061Zm0,7.864v3.016a6.245,6.245,0,0,1-3.129-3.016Zm7.591,0h1.647A12.165,12.165,0,0,1,69.5,36.813,13.361,13.361,0,0,0,70.57,34.925Zm.815-2.1a22.4,22.4,0,0,0,.96-5.768H76.1a12.036,12.036,0,0,1-2.054,5.768Zm.96-7.864a22.448,22.448,0,0,0-.959-5.768h2.662A12.035,12.035,0,0,1,76.1,24.965ZM70.571,17.1a13.345,13.345,0,0,0-1.07-1.891A12.124,12.124,0,0,1,72.219,17.1Zm-13.088,0H55.834a12.13,12.13,0,0,1,2.719-1.891A13.248,13.248,0,0,0,57.483,17.1ZM56.668,19.2a22.4,22.4,0,0,0-.959,5.768H51.953A12.035,12.035,0,0,1,54.006,19.2Zm-.959,7.864a22.448,22.448,0,0,0,.959,5.768H54.007a12.036,12.036,0,0,1-2.054-5.768Zm1.774,7.864a13.364,13.364,0,0,0,1.07,1.888,12.194,12.194,0,0,1-2.717-1.888ZM33.89,40.98A22.09,22.09,0,0,1,45.812,24.186a1.048,1.048,0,1,1,.947,1.869,20,20,0,0,0-10.791,15.2,1.05,1.05,0,0,1-1.038.91,1.093,1.093,0,0,1-.139-.009A1.047,1.047,0,0,1,33.89,40.98Zm44,2.916a22.059,22.059,0,0,1-16.7,21.429,1.02,1.02,0,0,1-.256.032,1.048,1.048,0,0,1-.254-2.065A19.966,19.966,0,0,0,75.79,43.9a1.048,1.048,0,0,1,2.1,0Z"/></svg>