<svg xmlns="http://www.w3.org/2000/svg" xmlns:xlink="http://www.w3.org/1999/xlink" version="1.1" x="0px" y="0px" viewBox="0 0 80 100" style="background-color: #4e10cc; padding-top: 13px;" xml:space="preserve"><g><path fill="white"   d="M51,25H29c-2.2056,0-4,1.7944-4,4v22c0,2.2056,1.7944,4,4,4h22c2.2056,0,4-1.7944,4-4V29C55,26.7944,53.2056,25,51,25z    M53,51c0,1.103-0.897,2-2,2H29c-1.103,0-2-0.897-2-2V29c0-1.103,0.897-2,2-2h22c1.103,0,2,0.897,2,2V51z"/><path fill="white"   d="M67,41c0.5522,0,1-0.4478,1-1s-0.4478-1-1-1h-7v-7h7c0.5522,0,1-0.4478,1-1s-0.4478-1-1-1h-7v-6c0-2.2056-1.7944-4-4-4h-6   v-7c0-0.5522-0.4478-1-1-1s-1,0.4478-1,1v7h-7v-7c0-0.5522-0.4478-1-1-1s-1,0.4478-1,1v7h-7v-7c0-0.5522-0.4478-1-1-1   s-1,0.4478-1,1v7h-6c-2.2056,0-4,1.7944-4,4v6h-7c-0.5522,0-1,0.4478-1,1s0.4478,1,1,1h7v7h-7c-0.5522,0-1,0.4478-1,1s0.4478,1,1,1   h7v7h-7c-0.5522,0-1,0.4478-1,1s0.4478,1,1,1h7v6c0,2.2056,1.7944,4,4,4h6v7c0,0.5522,0.4478,1,1,1s1-0.4478,1-1v-7h7v7   c0,0.5522,0.4478,1,1,1s1-0.4478,1-1v-7h7v7c0,0.5522,0.4478,1,1,1s1-0.4478,1-1v-7h6c2.2056,0,4-1.7944,4-4v-6h7   c0.5522,0,1-0.4478,1-1s-0.4478-1-1-1h-7v-7H67z M58,56c0,1.103-0.897,2-2,2H24c-1.103,0-2-0.897-2-2V24c0-1.103,0.897-2,2-2h32   c1.103,0,2,0.897,2,2V56z"/></g></svg>